<svg width="43" height="44" viewBox="0 0 43 44" fill="none" xmlns="http://www.w3.org/2000/svg">
<path fill-rule="evenodd" clip-rule="evenodd" d="M19.98 5.42991C20.3832 5.02684 20.93 4.80042 21.5001 4.80042C22.0702 4.80042 22.6169 5.02684 23.0201 5.42991L38.0701 20.4799C38.3707 20.7806 38.5754 21.1636 38.6583 21.5806C38.7413 21.9976 38.6987 22.4299 38.536 22.8227C38.3733 23.2155 38.0978 23.5512 37.7443 23.7875C37.3908 24.0237 36.9752 24.1499 36.5501 24.15H34.4001V37.05C34.4001 37.6202 34.1736 38.167 33.7704 38.5702C33.3672 38.9734 32.8203 39.2 32.2501 39.2H27.9501C27.3799 39.2 26.833 38.9734 26.4298 38.5702C26.0266 38.167 25.8001 37.6202 25.8001 37.05V30.6C25.8001 30.0297 25.5736 29.4829 25.1704 29.0797C24.7672 28.6765 24.2203 28.45 23.6501 28.45H19.3501C18.7799 28.45 18.233 28.6765 17.8298 29.0797C17.4266 29.4829 17.2001 30.0297 17.2001 30.6V37.05C17.2001 37.6202 16.9736 38.167 16.5704 38.5702C16.1672 38.9734 15.6203 39.2 15.0501 39.2H10.7501C10.1799 39.2 9.633 38.9734 9.2298 38.5702C8.8266 38.167 8.60008 37.6202 8.60008 37.05V24.15H6.45008C6.02492 24.1499 5.60932 24.0237 5.25584 23.7875C4.90236 23.5512 4.62686 23.2155 4.46417 22.8227C4.30148 22.4299 4.2589 21.9976 4.34182 21.5806C4.42474 21.1636 4.62944 20.7806 4.93003 20.4799L19.98 5.42991Z" fill="black"/>
</svg>
