<svg width="73" height="74" viewBox="0 0 73 74" fill="none" xmlns="http://www.w3.org/2000/svg">
<g clip-path="url(#clip0_48_168)">
<path fill-rule="evenodd" clip-rule="evenodd" d="M55.2976 12.6666C56.6218 12.6668 57.9098 13.0991 58.966 13.8979C60.0222 14.6966 60.7889 15.8182 61.1498 17.0923L61.2623 17.5576L66.494 43.7099C66.6195 44.3381 66.6114 44.9856 66.4701 45.6104C66.3288 46.2353 66.0575 46.8233 65.6739 47.3364C65.2903 47.8494 64.8029 48.2759 64.2435 48.5881C63.6842 48.9003 63.0653 49.0912 62.4273 49.1484L62.0197 49.1666H39.5418V55.25H45.6251C46.4004 55.2508 47.146 55.5477 47.7098 56.0799C48.2735 56.6121 48.6127 57.3394 48.6582 58.1134C48.7036 58.8873 48.4518 59.6494 47.9542 60.2439C47.4566 60.8384 46.7508 61.2204 45.981 61.312L45.6251 61.3333H27.3751C26.5998 61.3324 25.8542 61.0356 25.2904 60.5034C24.7267 59.9712 24.3875 59.2438 24.342 58.4699C24.2966 57.696 24.5484 56.9339 25.046 56.3394C25.5436 55.7449 26.2494 55.3628 27.0192 55.2713L27.3751 55.25H33.4584V49.1666H10.9805C10.3398 49.1665 9.70638 49.0315 9.12136 48.7703C8.53633 48.5092 8.01287 48.1277 7.58505 47.6509C7.15723 47.174 6.83464 46.6123 6.63828 46.0025C6.44192 45.3927 6.3762 44.7483 6.44539 44.1114L6.50622 43.7099L11.7379 17.5576C11.9972 16.2593 12.673 15.081 13.6628 14.2016C14.6525 13.3221 15.9022 12.7896 17.222 12.6849L17.7026 12.6666H55.2976ZM58.3393 33.9583H47.4653L48.3778 43.0833H60.1643L58.3393 33.9583ZM41.3516 33.9583H31.6486L30.7361 43.0833H42.2641L41.3516 33.9583ZM25.5349 33.9583H14.6609L12.8359 43.0833H24.6224L25.5349 33.9583ZM55.2976 18.75H45.9445L46.857 27.875H57.1226L55.2976 18.75ZM39.8307 18.75H33.1695L32.257 27.875H40.7432L39.8307 18.75ZM27.0557 18.75H17.7026L15.8776 27.875H26.1432L27.0557 18.75Z" fill="#FFC700"/>
</g>
<defs>
<clipPath id="clip0_48_168">
<rect width="73" height="73" fill="white" transform="translate(0 0.5)"/>
</clipPath>
</defs>
</svg>
